<?xml version="1.0" encoding="utf-8"?><svg xmlns="http://www.w3.org/2000/svg" xmlns:xlink="http://www.w3.org/1999/xlink"><symbol viewBox="0 0 57.914 36.877" id="gl"><defs><path id="aa" d="M0 0h57.914v36.877H0z"/></defs><clipPath id="ab"><use xlink:href="#aa" overflow="visible"/></clipPath><path clip-path="url(#ab)" fill-rule="evenodd" clip-rule="evenodd" d="M52.783 15.158h-1.219v-1.077c0-1.53.028-3.062-.028-4.621 0-.227-.256-.68-.426-.709-1.389-.056-2.806-.029-4.28-.029v6.436h-6.463v1.135l.17 3.486c1.134.057 2.268.086 3.402.113.963.028 1.898 0 2.947 0v6.351h4.649v-6.351h6.378v-4.734h-5.13zM34.5 14.62c-3.997.057-8.022.027-12.048.027-1.134 0-2.296 0-3.429.03-.227 0-.625.283-.625.424-.028 2.325-.028 4.622-.028 7.059h9.837c-.113.482-.199.823-.312 1.162-1.502 4.481-6.122 6.691-11.083 5.898-6.152-1.021-9.978-6.72-8.902-12.9.171-.85.426-1.673.794-2.467 2.041-4.478 7.059-7.2 12.048-6.094 1.785.368 3.288 1.248 4.62 2.381 1.786-1.786 3.515-3.543 5.386-5.415-.142-.085-.312-.226-.453-.34C25.939.7 20.979-.633 15.366.274 7.344 1.579 1.561 7.901.285 15.3a17.866 17.866 0 0 0 .964 9.753c3.062 7.852 10.942 12.643 19.39 11.708 4.109-.454 7.766-1.929 10.658-4.99 4.225-4.536 5.329-9.979 4.648-15.961-.113-.992-.508-1.19-1.445-1.19"/></symbol><symbol viewBox="0 0 20 19" id="start"><path d="M10 15.3l6.2 3.7-1.6-7L20 7.2l-7.2-.6L10 0 7.2 6.6 0 7.2 5.5 12l-1.6 7 6.1-3.7z"/></symbol><symbol viewBox="0 0 444.521 43.588" id="title"><path d="M212.623 14.843l12.014-12.015 12.015 12.015-12.015 12.015-12.014-12.015zM224.637 0l-14.842 14.843 14.842 14.842 14.843-14.842L224.637 0z"/><path d="M213.098 28.746l12.014-12.015 12.015 12.015-12.016 12.014-12.013-12.014zm-2.829 0l14.843 14.842 14.844-14.842-14.844-14.843-14.843 14.843z"/><path d="M244.762 36.433L229.92 21.59l14.842-14.842 14.842 14.842-14.842 14.843zM232.748 21.59l12.014 12.015 12.015-12.015-12.015-12.014-12.014 12.014zm-27.749 15.239l-14.842-14.842 14.842-14.843 14.842 14.843-14.842 14.842zm-12.014-14.842l12.014 12.014 12.014-12.014-12.014-12.015-12.014 12.015zM0 21.987l188.261 1.186v-2.372zm261.887 1.186l182.634-1.186-182.634-1.186z"/></symbol><symbol viewBox="0 0 66.359 53.1" id="tw"><defs><path id="da" d="M0 0h66.359v53.1H0z"/></defs><clipPath id="db"><use xlink:href="#da" overflow="visible"/></clipPath><path clip-path="url(#db)" fill-rule="evenodd" clip-rule="evenodd" d="M66.359 6.294a26.654 26.654 0 0 1-7.796 2.098 13.459 13.459 0 0 0 5.981-7.4 28.374 28.374 0 0 1-8.646 3.261A13.755 13.755 0 0 0 45.95 0c-7.513 0-13.607 6.011-13.607 13.409 0 1.05.114 2.07.34 3.063-11.31-.568-21.345-5.897-28.063-14.005a13.299 13.299 0 0 0-1.842 6.747c0 4.65 2.409 8.731 6.066 11.141-2.239-.056-4.337-.679-6.18-1.672v.17c0 1.701.34 3.345.936 4.848 1.672 4.195 5.414 7.371 10.006 8.307a15.106 15.106 0 0 1-3.6.453c-.879 0-1.729-.085-2.551-.229 1.729 5.304 6.746 9.187 12.699 9.3-4.649 3.602-10.517 5.727-16.895 5.727-1.105 0-2.182-.056-3.259-.169a39.134 39.134 0 0 0 20.891 6.01c21.26 0 34.355-14.743 37.786-30.051a35.94 35.94 0 0 0 .935-8.08c0-.567 0-1.162-.028-1.729a27.204 27.204 0 0 0 6.775-6.946"/></symbol><symbol viewBox="0 0 66.359 48.676" id="yt"><defs><path id="ea" d="M0 0h66.359v48.676H0z"/></defs><clipPath id="eb"><use xlink:href="#ea" overflow="visible"/></clipPath><path clip-path="url(#eb)" fill-rule="evenodd" clip-rule="evenodd" d="M44.249 23.644l-17.916 9.667v-19.42l8.079 4.394 9.837 5.359zm21.458-13.126s-.651-4.791-2.636-6.889C60.549.879 57.714.879 56.409.709 47.111 0 33.193 0 33.193 0h-.028S19.248 0 9.95.709c-1.304.17-4.11.17-6.661 2.92C1.305 5.727.681 10.518.681 10.518S0 16.103 0 21.716v5.244c0 5.586.681 11.198.681 11.198s.624 4.764 2.608 6.86c2.551 2.75 5.868 2.665 7.342 2.949 5.301.538 22.563.708 22.563.708s13.918-.027 23.216-.708c1.305-.171 4.14-.199 6.662-2.949 1.984-2.097 2.636-6.86 2.636-6.86s.652-5.612.652-11.198v-5.244c-.001-5.613-.653-11.198-.653-11.198"/></symbol></svg>